<?xml version="1.0" standalone="no"?>
<!DOCTYPE svg PUBLIC "-//W3C//DTD SVG 20010904//EN"
 "http://www.w3.org/TR/2001/REC-SVG-20010904/DTD/svg10.dtd">
<svg version="1.0" xmlns="http://www.w3.org/2000/svg"
 width="56.000000pt" height="56.000000pt" viewBox="0 0 56.000000 56.000000"
 preserveAspectRatio="xMidYMid meet">

<g transform="translate(0.000000,56.000000) scale(0.100000,-0.100000)"
fill="#000000" stroke="none">
<path d="M52 542 c-10 -10 -26 -53 -37 -96 -18 -74 -19 -79 -2 -108 14 -24 17
-56 17 -172 0 -97 4 -146 12 -154 17 -17 459 -17 476 0 8 8 12 58 12 158 1
112 4 149 15 164 8 11 15 29 15 39 0 37 -41 162 -58 175 -11 9 -73 12 -224 12
-186 0 -210 -2 -226 -18z m94 -49 c-3 -10 -8 -44 -11 -75 -5 -36 -14 -63 -26
-74 -17 -15 -20 -16 -44 0 -30 20 -30 20 -8 102 l17 64 39 0 c32 0 37 -3 33
-17z m114 -57 c0 -66 -3 -77 -22 -90 -28 -20 -33 -20 -53 0 -13 13 -15 28 -10
73 10 87 12 91 51 91 l34 0 0 -74z m114 52 c17 -82 17 -120 0 -139 -21 -23
-32 -24 -56 -2 -14 13 -18 31 -18 90 l0 73 35 0 c28 0 36 -4 39 -22z m129 -44
c16 -60 17 -68 2 -90 -32 -49 -69 -18 -80 66 -3 30 -9 63 -11 73 -4 14 1 17
33 17 l39 0 17 -66z m-332 -140 c10 -12 23 -14 53 -10 52 8 63 8 109 0 29 -5
43 -2 57 11 19 17 21 17 38 2 10 -10 28 -17 40 -17 21 0 22 -4 22 -120 l0
-120 -210 0 -210 0 0 120 c0 109 2 120 18 120 10 0 27 7 38 15 24 18 29 18 45
-1z"/>
</g>
</svg>
