<?xml version="1.0" standalone="no"?>
<!DOCTYPE svg PUBLIC "-//W3C//DTD SVG 20010904//EN"
 "http://www.w3.org/TR/2001/REC-SVG-20010904/DTD/svg10.dtd">
<svg version="1.0" xmlns="http://www.w3.org/2000/svg"
 width="48.000000pt" height="56.000000pt" viewBox="0 0 48.000000 56.000000"
 preserveAspectRatio="xMidYMid meet">

<g transform="translate(0.000000,56.000000) scale(0.100000,-0.100000)"
fill="#000000" stroke="none">
<path d="M185 530 c-56 -37 -125 -113 -153 -169 -39 -79 -39 -176 0 -242 94
-160 325 -154 410 10 49 95 27 218 -51 284 l-32 27 -30 -22 c-28 -21 -32 -21
-57 -7 -24 13 -27 21 -30 77 -3 68 -10 73 -57 42z m48 -146 c31 -26 70 -29
119 -9 23 9 66 -57 74 -116 7 -50 -22 -133 -57 -165 -18 -17 -19 -16 -19 25 0
38 -6 49 -57 103 l-58 60 -57 -61 c-48 -51 -58 -68 -58 -96 0 -48 -14 -44 -47
12 -52 89 -28 202 65 296 l47 48 8 -36 c5 -19 22 -46 40 -61z m77 -266 c0 -57
-58 -90 -109 -64 -53 28 -55 71 -4 127 l37 41 38 -41 c21 -22 38 -50 38 -63z"/>
</g>
</svg>
