<?xml version="1.0" standalone="no"?>
<!DOCTYPE svg PUBLIC "-//W3C//DTD SVG 20010904//EN"
 "http://www.w3.org/TR/2001/REC-SVG-20010904/DTD/svg10.dtd">
<svg version="1.0" xmlns="http://www.w3.org/2000/svg"
 width="48.000000pt" height="48.000000pt" viewBox="0 0 48.000000 48.000000"
 preserveAspectRatio="xMidYMid meet">

<g transform="translate(0.000000,48.000000) scale(0.100000,-0.100000)"
fill="#000000" stroke="none">
<path d="M162 467 c-40 -12 -117 -79 -137 -117 -8 -16 -18 -53 -21 -83 -16
-132 75 -248 206 -264 69 -8 132 12 185 59 55 49 72 79 81 146 10 80 -10 137
-70 198 -69 68 -155 90 -244 61z m155 -38 c34 -12 90 -64 109 -101 17 -32 19
-125 3 -165 -12 -34 -64 -90 -101 -109 -32 -17 -125 -19 -165 -3 -34 12 -90
64 -109 101 -17 32 -19 125 -3 165 12 34 53 79 94 104 34 21 126 26 172 8z"/>
<path d="M220 305 l0 -55 -50 0 c-38 0 -50 -4 -50 -15 0 -11 12 -15 50 -15
l50 0 0 -50 c0 -43 3 -50 20 -50 17 0 20 7 20 50 l0 50 50 0 c38 0 50 4 50 15
0 11 -12 15 -50 15 l-50 0 0 55 c0 48 -2 55 -20 55 -18 0 -20 -7 -20 -55z"/>
</g>
</svg>
