<?xml version="1.0" standalone="no"?>
<!DOCTYPE svg PUBLIC "-//W3C//DTD SVG 20010904//EN"
 "http://www.w3.org/TR/2001/REC-SVG-20010904/DTD/svg10.dtd">
<svg version="1.0" xmlns="http://www.w3.org/2000/svg"
 width="48.000000pt" height="48.000000pt" viewBox="0 0 48.000000 48.000000"
 preserveAspectRatio="xMidYMid meet">

<g transform="translate(0.000000,48.000000) scale(0.100000,-0.100000)"
fill="#000000" stroke="none">
<path d="M180 471 c-150 -46 -220 -204 -150 -341 28 -55 93 -106 152 -120 199
-48 361 157 268 340 -49 95 -172 150 -270 121z m137 -42 c34 -12 90 -64 109
-101 17 -32 19 -125 3 -165 -12 -34 -64 -90 -101 -109 -32 -17 -125 -19 -165
-3 -34 12 -90 64 -109 101 -17 32 -19 125 -3 165 12 34 53 79 94 104 34 21
126 26 172 8z"/>
<path d="M180 240 l0 -102 28 18 c15 10 48 31 75 47 26 17 47 33 47 38 0 4
-24 22 -52 40 -29 17 -63 38 -75 47 l-23 14 0 -102z"/>
</g>
</svg>
