<?xml version="1.0" standalone="no"?>
<!DOCTYPE svg PUBLIC "-//W3C//DTD SVG 20010904//EN"
 "http://www.w3.org/TR/2001/REC-SVG-20010904/DTD/svg10.dtd">
<svg version="1.0" xmlns="http://www.w3.org/2000/svg"
 width="48.000000pt" height="48.000000pt" viewBox="0 0 48.000000 48.000000"
 preserveAspectRatio="xMidYMid meet">

<g transform="translate(0.000000,48.000000) scale(0.100000,-0.100000)"
fill="#000000" stroke="none">
<path d="M162 467 c-40 -12 -117 -79 -137 -117 -8 -16 -18 -53 -21 -83 -16
-132 75 -248 206 -264 69 -8 132 12 185 59 55 49 72 79 81 146 10 80 -10 137
-70 198 -69 68 -155 90 -244 61z m184 -52 c63 -37 94 -95 94 -175 0 -80 -31
-138 -94 -175 -60 -35 -152 -35 -212 0 -63 37 -94 95 -94 175 0 79 31 137 93
174 60 36 152 36 213 1z"/>
<path d="M150 240 l0 -90 90 0 90 0 0 90 0 90 -90 0 -90 0 0 -90z"/>
</g>
</svg>
