<?xml version="1.0" standalone="no"?>
<!DOCTYPE svg PUBLIC "-//W3C//DTD SVG 20010904//EN"
 "http://www.w3.org/TR/2001/REC-SVG-20010904/DTD/svg10.dtd">
<svg version="1.0" xmlns="http://www.w3.org/2000/svg"
 width="53.000000pt" height="64.000000pt" viewBox="0 0 53.000000 64.000000"
 preserveAspectRatio="xMidYMid meet">

<g transform="translate(0.000000,64.000000) scale(0.100000,-0.100000)"
fill="#000000" stroke="none">
<path d="M204 626 c-31 -14 -74 -63 -74 -85 0 -7 -18 -29 -39 -49 -67 -64 -68
-138 -2 -204 36 -35 43 -38 95 -38 l56 0 0 -65 0 -65 -75 0 c-68 0 -75 -2 -75
-20 0 -19 7 -20 175 -20 168 0 175 1 175 20 0 18 -7 20 -80 20 l-80 0 0 65 0
65 50 0 c63 0 102 19 129 63 37 60 22 141 -32 184 -13 10 -32 36 -43 58 -35
73 -108 102 -180 71z m115 -52 c18 -15 33 -39 37 -60 3 -19 12 -34 19 -34 7 0
25 -14 39 -31 36 -43 35 -91 -3 -130 -29 -29 -31 -29 -140 -29 -130 0 -156 8
-178 54 -22 47 -9 94 34 121 17 11 34 31 38 45 21 84 95 114 154 64z"/>
</g>
</svg>
